HIERARCHY
ROOT Hips
{
	OFFSET -131.695496 91.669037 -190.067505
	CHANNELS 6 Xposition Yposition Zposition Zrotation Yrotation Xrotation
	JOINT LeftUpLeg
	{
		OFFSET 0.103456 1.857829 10.548507
		CHANNELS 3 Zrotation Yrotation Xrotation
		JOINT LeftLeg
		{
			OFFSET 43.500000 -0.000031 0.000008
			CHANNELS 3 Zrotation Yrotation Xrotation
			JOINT LeftFoot
			{
				OFFSET 42.372200 0.000015 -0.000002
				CHANNELS 3 Zrotation Yrotation Xrotation
				JOINT LeftToe
				{
					OFFSET 17.299992 -0.000004 0.000000
					CHANNELS 3 Zrotation Yrotation Xrotation
					End Site
					{
						OFFSET 0.000000 0.000000 0.000000
					}
				}
			}
		}
	}
	JOINT RightUpLeg
	{
		OFFSET 0.103460 1.857824 -10.548508
		CHANNELS 3 Zrotation Yrotation Xrotation
		JOINT RightLeg
		{
			OFFSET 43.500042 -0.000019 0.000004
			CHANNELS 3 Zrotation Yrotation Xrotation
			JOINT RightFoot
			{
				OFFSET 42.372265 -0.000019 0.000016
				CHANNELS 3 Zrotation Yrotation Xrotation
				JOINT RightToe
				{
					OFFSET 17.299999 -0.000001 -0.000006
					CHANNELS 3 Zrotation Yrotation Xrotation
					End Site
					{
						OFFSET 0.000000 0.000000 0.000000
					}
				}
			}
		}
	}
	JOINT Spine
	{
		OFFSET 6.901965 -2.603734 0.000001
		CHANNELS 3 Zrotation Yrotation Xrotation
		JOINT Spine1
		{
			OFFSET 12.588102 0.000006 -0.000006
			CHANNELS 3 Zrotation Yrotation Xrotation
			JOINT Spine2
			{
				OFFSET 12.343201 -0.000002 0.000010
				CHANNELS 3 Zrotation Yrotation Xrotation
				JOINT Neck
				{
					OFFSET 25.832899 -0.000004 -0.000009
					CHANNELS 3 Zrotation Yrotation Xrotation
					JOINT Head
					{
						OFFSET 11.766603 0.000001 0.000007
						CHANNELS 3 Zrotation Yrotation Xrotation
						End Site
						{
							OFFSET 0.000000 0.000000 0.000000
						}
					}
				}
				JOINT LeftShoulder
				{
					OFFSET 19.745899 -1.480371 6.000098
					CHANNELS 3 Zrotation Yrotation Xrotation
					JOINT LeftArm
					{
						OFFSET 11.284129 -0.000011 -0.000015
						CHANNELS 3 Zrotation Yrotation Xrotation
						JOINT LeftForeArm
						{
							OFFSET 33.000046 0.000011 0.000030
							CHANNELS 3 Zrotation Yrotation Xrotation
							JOINT LeftHand
							{
								OFFSET 25.200010 0.000012 -0.000000
								CHANNELS 3 Zrotation Yrotation Xrotation
								End Site
								{
									OFFSET 0.000000 0.000000 0.000000
								}
							}
						}
					}
				}
				JOINT RightShoulder
				{
					OFFSET 19.746092 -1.480375 -6.000075
					CHANNELS 3 Zrotation Yrotation Xrotation
					JOINT RightArm
					{
						OFFSET 11.284135 -0.000010 -0.000014
						CHANNELS 3 Zrotation Yrotation Xrotation
						JOINT RightForeArm
						{
							OFFSET 33.000092 0.000016 0.000013
							CHANNELS 3 Zrotation Yrotation Xrotation
							JOINT RightHand
							{
								OFFSET 25.199780 0.000135 0.000426
								CHANNELS 3 Zrotation Yrotation Xrotation
								End Site
								{
									OFFSET 0.000000 0.000000 0.000000
								}
							}
						}
					}
				}
			}
		}
	}
}
MOTION
Frames: 12
Frame Time: 0.033333
-24.937340 79.718323 -501.042999 88.139589 -7.329748 169.400999 133.166559 3.091598 164.402244 -46.027006 -3.818028 2.421211 66.567638 2.224439 10.161493 21.454553 0.003092 0.000000 -171.464645 8.765001 -168.214363 -52.686829 -0.736787 -0.182059 75.046096 0.611925 1.572511 21.454557 -0.003106 -0.000018 11.208504 -2.263342 3.011007 12.292958 -4.833911 5.768817 11.975418 -4.798909 5.797833 10.843870 -10.248360 -11.875909 -9.627678 19.872101 -18.922117 137.472706 -84.745251 41.172066 3.837870 24.786231 34.230958 -99.253871 -3.649516 2.971621 -16.380670 -1.761434 54.865929 74.728041 86.239847 -103.850294 -38.178756 -10.724515 18.956884 -92.152926 4.717753 -2.772933 -13.120115 11.791661 -39.096341
-20.507740 79.103073 -500.852203 90.383907 -8.621958 170.459966 135.040804 5.978897 167.038970 -51.249587 -4.784829 0.992877 71.745236 2.503488 9.399785 21.454555 0.003092 0.000000 -177.728448 12.676805 -168.305355 -71.218389 -2.240371 -0.261609 68.189952 1.758434 4.038025 21.454555 -0.003108 -0.000018 11.990441 -2.742569 2.338521 13.876270 -5.745839 4.335536 13.557439 -5.719441 4.370183 12.001663 -7.596184 -11.583752 -12.419764 18.654589 -18.549160 151.970179 -80.806766 26.816076 8.510413 34.146691 26.754925 -96.295012 -3.640906 2.839490 -15.001880 -4.990556 47.769298 129.120983 86.544924 -49.459999 -39.945907 -18.751919 25.108149 -100.106401 1.452712 -2.900800 -10.990141 10.386079 -36.972521
-16.301960 79.279480 -500.560394 92.230100 -8.224512 170.359985 138.183114 7.196106 168.292391 -54.271604 -4.251961 0.102571 76.173685 2.548517 8.796842 21.454557 0.003092 0.000000 174.026240 12.429703 -172.638564 -86.783175 -3.659725 1.102357 68.309446 0.603646 3.357485 21.454563 -0.003109 -0.000016 12.769918 -2.784012 2.113640 15.448802 -5.825321 3.840296 15.129701 -5.801906 3.875460 12.627013 -7.098744 -11.244771 -13.393592 18.279659 -18.205845 158.916345 -77.587698 19.942993 7.425696 44.999772 17.899778 -94.215363 -3.621143 2.745591 -12.294162 -6.729413 43.230398 152.115061 84.678513 -26.490923 -40.445464 -27.990769 27.291180 -105.163016 0.239780 -3.041117 -11.266796 9.203921 -38.031340
-13.009400 80.308594 -500.235504 91.643394 -7.617939 171.105951 140.514039 7.392699 169.240927 -53.975529 -4.334474 0.309424 78.615969 2.316334 9.229432 21.454558 0.003094 0.000000 162.572955 10.220396 -176.869019 -98.586930 -4.134378 3.045589 71.895336 -1.122433 2.567687 21.454563 -0.003107 -0.000018 13.130923 -2.578650 1.914096 16.185194 -5.399706 3.451346 15.866181 -5.378642 3.483943 13.208697 -6.553366 -10.972592 -14.251734 17.564552 -17.790896 163.317391 -75.100198 15.572988 -1.633457 53.793740 6.961585 -92.436249 -3.944514 2.689105 -13.196591 -7.048320 44.392377 162.440927 82.098928 -16.204120 -39.199805 -37.051748 26.145237 -106.040497 -0.072723 -3.058129 -13.785931 9.658181 -41.235321
-10.039710 82.239754 -499.867096 89.991697 -7.495125 173.432983 143.479339 8.268601 169.738356 -50.123343 -4.009958 1.505311 78.936851 1.649106 9.983318 21.454553 0.003092 -0.000000 150.765238 8.986895 -178.788220 -104.702695 -4.315962 5.254239 72.255417 -2.701446 2.580209 21.454563 -0.003109 -0.000017 13.357533 -2.315389 1.546263 16.658838 -4.829280 2.744577 16.339923 -4.812491 2.773739 13.398198 -5.991615 -10.992190 -15.940413 17.811679 -18.176631 158.496398 -74.340455 20.530034 -15.486284 58.889666 -4.862715 -92.185185 -4.090363 2.688144 -14.256816 -6.324235 45.221617 169.355988 79.621947 -9.294903 -36.713944 -46.578376 23.674358 -103.102792 0.718065 -2.983105 -16.237882 11.528191 -44.005690
-7.366785 84.965897 -499.418793 87.552794 -6.865968 176.208007 147.215439 8.720504 171.564762 -42.951600 -4.210916 2.713030 77.312523 1.033735 10.236370 21.454551 0.003093 0.000000 139.622071 7.809999 -179.413606 -104.577504 -4.457285 7.240958 71.892324 -4.268298 2.156602 21.454545 -0.003109 -0.000019 13.370200 -1.807142 1.177472 16.702169 -3.765357 2.082286 16.383563 -3.752582 2.105016 13.395829 -6.247952 -11.310028 -17.161544 17.887202 -18.783382 150.654780 -75.039013 28.484968 -32.292684 59.247677 -14.962598 -91.409125 -4.712710 2.697204 -14.644615 -5.078510 46.131159 172.048094 78.029673 -6.607908 -31.974967 -55.631720 21.210463 -97.346083 2.010161 -2.816244 -19.126589 12.630181 -46.065046
-4.587147 87.984047 -498.925415 85.469914 -5.635845 178.946039 152.557821 8.925094 174.080198 -33.129358 -3.836545 3.662573 74.455660 0.448585 9.649611 21.454545 0.003093 -0.000000 131.618114 6.670303 -179.331070 -98.979857 -4.131621 8.607684 72.249884 -5.393785 1.849390 21.454563 -0.003107 -0.000019 13.283750 -1.121213 0.697436 16.545522 -2.330684 1.227337 16.227218 -2.323095 1.241406 13.325880 -7.348576 -11.025139 -17.499459 18.523219 -18.852871 143.990797 -76.716514 35.149038 -46.768836 55.739760 -20.642100 -90.783726 -5.377488 2.715962 -13.049373 -3.062591 48.255526 175.288090 76.144137 -3.356925 -25.321542 -60.950942 15.260710 -90.732103 4.531987 -2.696394 -22.569791 14.940115 -47.136054
-1.474707 90.815262 -498.337585 83.639102 -3.582237 -179.364989 159.006818 7.787201 178.898938 -21.479762 -4.002915 3.005716 71.324189 0.461190 7.490008 21.454548 0.003091 -0.000000 126.852555 4.697006 -179.642363 -88.953454 -2.828930 9.046017 71.978405 -5.628117 2.364103 21.454562 -0.003108 -0.000017 12.988251 -0.397517 0.268103 15.962304 -0.828279 0.478724 15.644164 -0.825238 0.483730 12.835894 -8.472377 -10.432629 -17.372007 19.128129 -18.527054 137.908650 -79.065874 41.141962 -56.314845 50.488393 -21.652625 -90.034584 -5.908228 2.719879 -11.712460 -1.100713 51.004902 176.751936 73.688534 -1.916034 -14.450133 -61.646002 2.576068 -85.876836 7.449789 -2.684381 -24.805806 18.834831 -46.417016
2.141808 92.593147 -497.749115 81.943910 -1.432254 -179.175055 164.707567 6.034394 -178.351771 -12.082324 -2.683034 1.454540 70.847708 0.473747 4.250049 21.454550 0.003091 -0.000000 124.550549 2.281494 179.573364 -76.362000 -1.168122 8.146484 71.058078 -5.109089 2.192111 21.454560 -0.003104 -0.000017 12.450632 0.211817 -0.072292 14.888294 0.431118 -0.116691 14.570185 0.430541 -0.119280 10.910646 -9.843652 -9.482818 -16.614746 19.944091 -17.905717 129.597758 -81.360319 49.348028 -61.186214 45.479593 -20.430098 -90.597808 -5.766760 2.734961 -10.114752 0.074450 52.555177 179.297110 71.932492 0.658934 -2.866352 -59.493420 -10.883521 -83.744362 8.558861 -2.667702 -25.711074 20.179090 -46.297730
6.151209 93.139023 -497.141815 80.645997 0.505363 -179.515990 168.935986 4.236695 -175.613248 -9.075425 -1.689118 -6.164391 75.101939 4.858701 1.593789 21.454555 0.003091 -0.000000 124.619452 -0.087601 178.752567 -61.976051 0.187721 5.383334 70.332548 -3.603047 0.906681 21.454562 -0.003108 -0.000017 11.802219 0.727787 -0.519243 13.586495 1.511473 -0.949372 13.268320 1.505848 -0.958474 7.903156 -10.400830 -8.357927 -14.985906 19.953559 -16.684634 114.088072 -83.108465 64.779010 -62.497809 40.956229 -18.532310 -92.139853 -4.923356 2.744412 -8.934331 -0.313892 50.310043 -179.353022 71.883930 2.047123 8.003925 -56.132021 -22.959056 -84.169671 8.037666 -2.649993 -25.734438 20.854984 -46.359953
10.502300 92.467232 -496.577209 80.323482 1.633061 -178.781007 172.175504 2.010605 -177.699269 -10.698861 -2.502315 -8.935728 79.038690 5.761463 -2.200305 21.454553 0.003091 0.000000 127.196700 -0.719300 177.924133 -46.674989 1.272401 1.121997 70.235778 -0.815754 0.186161 21.454562 -0.003108 -0.000017 11.205230 1.080462 -1.421111 12.372696 2.306707 -2.718845 12.054721 2.290388 -2.732707 4.892256 -9.855786 -7.206994 -13.036516 19.845702 -15.232609 92.243897 -84.042438 86.546160 -61.345522 36.380965 -15.665724 -93.574821 -4.081063 2.749273 -8.618162 -1.558119 47.631058 -179.632090 73.364332 1.784912 16.411869 -52.027661 -32.777289 -85.813226 6.556215 -2.619056 -25.079140 21.130015 -43.876418
15.305600 91.329903 -496.210297 81.953097 1.077030 -177.046016 176.771593 1.934799 177.288160 -10.910464 -2.945046 -5.123229 80.678454 4.354637 3.097394 21.454553 0.003088 0.000000 133.152871 0.432799 174.820796 -31.674965 2.666663 -0.626064 69.596035 0.502860 0.483700 21.454557 -0.003112 -0.000017 10.982751 1.027761 -2.533288 11.905099 2.310838 -4.948071 11.587996 2.281088 -4.961883 2.898228 -7.144481 -6.762607 -11.411941 18.561466 -13.788541 78.837062 -84.017385 99.891926 -59.203171 30.584358 -10.955025 -94.476590 -3.800587 2.769766 -9.085787 -2.849721 43.083040 178.759984 75.016118 0.166970 22.816997 -47.292619 -38.757232 -88.815641 3.876348 -2.565110 -24.512251 20.510223 -42.144907
